<svg xmlns="http://www.w3.org/2000/svg" fill="none" viewBox="0 0 34 34" class="w-8 h-8 mr-2"><path stroke="currentColor" stroke-linecap="round" stroke-linejoin="round" stroke-width="1.5" d="M12.219 17a.532.532 0 11-1.063 0 .532.532 0 011.063 0zm0 0h-.531m5.843 0a.532.532 0 11-1.063 0 .532.532 0 011.063 0zm0 0H17m5.844 0a.532.532 0 11-1.063 0 .532.532 0 011.063 0zm0 0h-.532m7.438 0c0 6.454-5.71 11.688-12.75 11.688a13.83 13.83 0 01-3.62-.478 8.46 8.46 0 01-5.716 1.497 8.432 8.432 0 01-.671-.092 6.347 6.347 0 001.385-2.868c.128-.648-.188-1.277-.661-1.737C5.567 22.919 4.25 20.1 4.25 17 4.25 10.546 9.96 5.312 17 5.312S29.75 10.546 29.75 17z"></path></svg>