<svg class="text-[#D9D9D9] h-6 w-6" viewBox="0 0 28 28" fill="none" xmlns="http://www.w3.org/2000/svg"><path d="M12.1334 20.1333L21.5334 10.7333L19.6667 8.86663L12.1334 16.4L8.33335 12.6L6.46669 14.4666L12.1334 20.1333ZM14 27.3333C12.1556 27.3333 10.4222 26.9833 8.80002 26.2833C7.1778 25.5833 5.76669 24.6333 4.56669 23.4333C3.36669 22.2333 2.41669 20.8222 1.71669 19.2C1.01669 17.5777 0.666687 15.8444 0.666687 14C0.666687 12.1555 1.01669 10.4222 1.71669 8.79996C2.41669 7.17774 3.36669 5.76663 4.56669 4.56663C5.76669 3.36663 7.1778 2.41663 8.80002 1.71663C10.4222 1.01663 12.1556 0.666626 14 0.666626C15.8445 0.666626 17.5778 1.01663 19.2 1.71663C20.8222 2.41663 22.2334 3.36663 23.4334 4.56663C24.6334 5.76663 25.5834 7.17774 26.2834 8.79996C26.9834 10.4222 27.3334 12.1555 27.3334 14C27.3334 15.8444 26.9834 17.5777 26.2834 19.2C25.5834 20.8222 24.6334 22.2333 23.4334 23.4333C22.2334 24.6333 20.8222 25.5833 19.2 26.2833C17.5778 26.9833 15.8445 27.3333 14 27.3333ZM14 24.6666C16.9778 24.6666 19.5 23.6333 21.5667 21.5666C23.6334 19.5 24.6667 16.9777 24.6667 14C24.6667 11.0222 23.6334 8.49996 21.5667 6.43329C19.5 4.36663 16.9778 3.33329 14 3.33329C11.0222 3.33329 8.50002 4.36663 6.43335 6.43329C4.36669 8.49996 3.33335 11.0222 3.33335 14C3.33335 16.9777 4.36669 19.5 6.43335 21.5666C8.50002 23.6333 11.0222 24.6666 14 24.6666Z" fill="white"></path></svg>