<svg id="Capa_1" xmlns="http://www.w3.org/2000/svg" x="0px" y="0px" viewBox="0 0 96 40" xml:space="preserve" class="h-[50px] text-white"><path fill="white" class="st0" d="M16.6 13.36c-.43.11-1.03.36-1.65.74-2.75 1.54-4.68 4.55-6.21 8.28-.31-2.68-.62-5.31-.95-8.28H1.34c.82 7.59 1.62 14.66 2.44 22.27h8.1c0-1.78.28-5.7 1.09-8.44.89-3 2.87-7.37 5.12-8.46.4-.15.73-.21.99-.2.16-.01.33 0 .51.04 1.12.25 1.46 1.14 1.46 2.17.01 4.38 0 8.77 0 13.15v1.74h6.77c.03-.26.08-.48.08-.71-.01-4.77.04-9.53-.05-14.3-.16-7.35-6.36-9.23-11.25-8zM44.58 31.64c-.86.46-1.44.69-2.42.63-1.22-.07-2.05-.71-2.33-1.89-.13-.55-.19-1.14-.19-1.71 0-.92 0-1.84-.01-2.76 0-2.43.01-4.96.01-7.5h4.59l2.27-4.92h-6.86V3.21c0-.09-.01-.18-.01-.29l-6.29 2.27c-.01.11-.01.2-.01.29v8.01h-3.94v4.92h3.94c0 2.54 0 5.07.01 7.5 0 .92 0 1.84-.01 2.76h.01v1.04c0 .82.09 1.65.22 2.45.38 2.34 1.68 3.94 4.02 4.52 2.64.66 5.23.47 7.73-.5l-.53-4.66c-.07.05-.14.09-.2.12zM86.38 19.46c.23-.12.48-.2.77-.2.13 0 .26.02.4.05.89.2 1.28.8 1.41 1.56l6.33-2.83C94.08 14.48 91.02 13 87.77 13c-.95 0-1.93.12-2.87.36-.29.07-.57.17-.84.27v-.01c-.03.01-.06.03-.09.04-.72.29-1.37.68-1.92 1.2-1.92 1.66-3.05 4.3-4.35 7.46-.31-2.66-.62-5.27-.95-8.23h-6.48c.82 7.59 1.62 14.66 2.44 22.27h8.1c0-1.78.03-5.61.62-8.41.77-3.62 2.7-7.4 4.95-8.49z"></path><path fill="white" class="st0" d="M60.77 30.89c-1.82.46-3.75.5-5.32-.4-1.23-.7-1.94-1.94-2.11-3.23.58-.03.79-.06 1.33-.1 2.45-.16 4.86-.49 7.15-1.27 1.75-.59 3.3-1.42 4.4-2.75 1.36-1.64 1.65-3.48 1.27-5.41-.44-2.23-2.74-3.77-4.61-4.48-1.8-.59-3.49-.83-5.4-.69-4.7.36-8.15 2.32-10.24 5.86-2.31 3.92-2.38 7.75-.77 11.86.11.29.26.58.42.87l.16.03v.26c1.53 2.5 4.68 4.8 7.69 5.22 2.79.39 4.67.25 6.71-.31 6.11-1.94 7.94-5.5 8.13-5.67-1.12-1.02-3.93-3.59-3.95-3.58-.63.69-1.78 2.84-4.86 3.79zm-5.83-12.77c.97-.81 2.18-1.17 3.52-1.14 2.11.05 3.25 1.76 2.3 3.39-.34.59-.9 1.01-1.56 1.33-1.98.97-4.18 1.2-6.48 1.31.16-1.85.63-3.55 2.22-4.89zM2.57 10.76c1.83 1.21 3.94.95 4.97-.6 1.02-1.53.42-3.57-1.4-4.77-1.79-1.18-3.89-.92-4.9.61-1.05 1.58-.5 3.55 1.33 4.76z"></path><path fill="none" d="M0.53 0H95.48V40H0.53z"></path></svg>