<svg class="w-8 mx-auto text-[#1C1B1F]" viewBox="0 0 32 32" fill="none" xmlns="http://www.w3.org/2000/svg"><mask id="mask0_1121_8484" maskUnits="userSpaceOnUse" x="0" y="-1" width="32" height="33"><rect y="-0.000244141" width="32" height="32" fill="#D9D9D9"></rect></mask><g mask="url(#mask0_1121_8484)"><path d="M6.66602 21.3326H9.33268C9.33268 20.5993 9.07157 19.9715 8.54935 19.4493C8.02713 18.927 7.39935 18.6659 6.66602 18.6659V21.3326ZM11.3993 21.3326H13.3327C13.3327 19.4882 12.6827 17.9159 11.3827 16.6159C10.0827 15.3159 8.51046 14.6659 6.66602 14.6659V16.5993C7.97713 16.5993 9.09379 17.0604 10.016 17.9826C10.9382 18.9048 11.3993 20.0215 11.3993 21.3326ZM15.3993 21.3326H17.3327C17.3327 19.8659 17.0549 18.4826 16.4993 17.1826C15.9438 15.8826 15.1827 14.7493 14.216 13.7826C13.2493 12.8159 12.116 12.0548 10.816 11.4993C9.51602 10.9437 8.13268 10.6659 6.66602 10.6659V12.5993C9.08824 12.5993 11.1493 13.4493 12.8493 15.1493C14.5493 16.8493 15.3993 18.9104 15.3993 21.3326ZM10.666 27.9993V25.3326H5.33268C4.59935 25.3326 3.97157 25.0715 3.44935 24.5493C2.92713 24.027 2.66602 23.3993 2.66602 22.6659V6.66593C2.66602 5.9326 2.92713 5.30482 3.44935 4.7826C3.97157 4.26038 4.59935 3.99927 5.33268 3.99927H26.666C27.3993 3.99927 28.0271 4.26038 28.5494 4.7826C29.0716 5.30482 29.3327 5.9326 29.3327 6.66593V22.6659C29.3327 23.3993 29.0716 24.027 28.5494 24.5493C28.0271 25.0715 27.3993 25.3326 26.666 25.3326H21.3327V27.9993H10.666ZM5.33268 22.6659H26.666V6.66593H5.33268V22.6659Z" fill="currentcolor"></path></g></svg>