<svg width="440" height="90" xmlns="http://www.w3.org/2000/svg" xmlns:xlink="http://www.w3.org/1999/xlink">
  <defs>
    <linearGradient gradientUnits="userSpaceOnUse" x1="-819.2" x2="819.2" spreadMethod="pad" gradientTransform="matrix(0.0106964111328125 0.0717926025390625 -0.048614501953125 0.007232666015625 119.6 39.25)" id="gradient0">
      <stop offset="0" stop-color="#4B596B"/>
      <stop offset="1" stop-color="#151515"/>
    </linearGradient>
    <linearGradient gradientUnits="userSpaceOnUse" x1="-819.2" x2="819.2" spreadMethod="pad" gradientTransform="matrix(0 0.0390625 -0.026947021484375 0 310.25 37.25)" id="gradient1">
      <stop offset="0" stop-color="#25292E"/>
      <stop offset="1" stop-color="#121315"/>
    </linearGradient>
    <linearGradient gradientUnits="userSpaceOnUse" x1="-819.2" x2="819.2" spreadMethod="pad" gradientTransform="matrix(0 0.0390167236328125 -0.0272674560546875 0 311.25 37.75)" id="gradient2">
      <stop offset="0" stop-color="#25292E"/>
      <stop offset="1" stop-color="#121315"/>
    </linearGradient>
    <linearGradient gradientUnits="userSpaceOnUse" x1="-819.2" x2="819.2" spreadMethod="pad" gradientTransform="matrix(0 0.040374755859375 -0.0278167724609375 0 311.4 37.05)" id="gradient3">
      <stop offset="0" stop-color="#25292E"/>
      <stop offset="1" stop-color="#121315"/>
    </linearGradient>
    <linearGradient gradientUnits="userSpaceOnUse" x1="-819.2" x2="819.2" spreadMethod="pad" gradientTransform="matrix(0 0.0389251708984375 -0.027008056640625 0 309.9 38.35)" id="gradient4">
      <stop offset="0" stop-color="#25292E"/>
      <stop offset="1" stop-color="#121315"/>
    </linearGradient>
    <linearGradient gradientUnits="userSpaceOnUse" x1="-819.2" x2="819.2" spreadMethod="pad" gradientTransform="matrix(0 0.0393218994140625 -0.027008056640625 0 309.95 38.45)" id="gradient5">
      <stop offset="0" stop-color="#25292E"/>
      <stop offset="1" stop-color="#121315"/>
    </linearGradient>
    <linearGradient gradientUnits="userSpaceOnUse" x1="-819.2" x2="819.2" spreadMethod="pad" gradientTransform="matrix(0.113250732421875 0 0 0.012115478515625 110.55 71.75)" id="gradient6">
      <stop offset="0" stop-color="#39434D"/>
      <stop offset="1" stop-color="#1A1B1D"/>
    </linearGradient>
  </defs>
  <g>
    <path stroke="none" fill="url(#gradient0)" d="M18.6 81.55 L3.95 20.4 3.9 20.4 2.95 15.85 2.6 15.05 2 12.7 2 12.65 2.1 12.65 2.1 12.55 9.75 10.7 9.75 10.8 32.8 5.5 33.8 9.95 37.55 1 45.95 2.95 51 4.3 65.65 7.85 72.95 6.85 99.3 4.7 110.15 4.5 123.15 4.9 125.45 4.9 126.55 5.1 126.6 5.1 136.05 5.85 136.2 5.85 150.15 7.4 150.15 7.5 152.5 7.85 158.6 8.95 158.6 8.85 160.05 9.15 160.5 9.25 163.35 9.75 163.55 9.75 165.2 10.2 166.3 10.2 167.3 10.4 174.25 12.05 171.55 4.1 201.35 3.45 204.9 15.25 216.35 4.1 216.5 4.3 216.7 4.1 237.05 24.65 211.8 45.25 210.65 49.85 202.4 80.35 189 76.85 188.6 76.7 182.2 75.25 182.05 75.1 176.05 73.55 176.55 71.05 Q128.1 59.25 79.5 66.15 L70.7 67.3 63 75.85 48.1 66.35 50 73.7 18.6 81.55 M162.25 14.95 L162.05 16.9 162.1 16.9 156.85 60.35 182.2 64.95 184.1 53.7 168.6 50.8 169.4 44.3 183.3 46.85 185.15 37.9 170.6 35.1 171.9 28.35 184.9 31.45 180.8 19.15 177.95 18.5 177.35 18.25 Q169.65 16.35 162.25 14.95 M228.95 23.55 L216.5 11.95 201.95 25.8 196.95 8.95 180 9.25 187.85 32.7 189 36.15 183.15 67.95 188.15 69.3 189.75 69.8 198.05 71.95 206.45 40.75 228.95 23.55 M89.6 57.65 L87.85 43.55 76.8 44.5 75.8 39.3 87.1 37.9 86.05 28.6 74.8 29.4 74.05 23.8 85.25 22.6 83.75 11 Q72.25 12.05 60.85 14 L62.6 30.5 63.55 38.85 64.4 47.05 46.55 36.7 59.9 11.95 41.15 7.25 32.65 30.15 28.3 12.05 9.55 16.35 22.95 73.2 42.45 68.35 37.85 51.3 61.85 66.95 67.9 60.55 89.6 57.65 M122.9 10.2 L110.05 9.75 110.05 28.9 97.85 9.95 90.55 10.35 87.1 10.6 91.15 57.8 102.75 57.25 102.75 43.25 111.5 56.9 120.3 57.1 122.9 57.25 122.9 10.2 M160.25 14.65 L147.75 12.55 145.55 32.5 136.45 11.3 135.85 11.2 135.7 11.2 126.25 10.35 125.25 10.2 124.05 57.25 133.95 57.8 135.45 57.9 135.45 44.65 142.6 58.25 154.9 60 160.25 14.65"/>
    <path stroke="none" fill="#FFFFFF" d="M160.25 14.65 L154.9 60 142.6 58.25 135.45 44.65 135.45 57.9 133.95 57.8 124.05 57.25 125.25 10.2 126.25 10.35 135.7 11.2 135.85 11.2 136.45 11.3 145.55 32.5 147.75 12.55 160.25 14.65 M228.95 23.55 L206.45 40.75 198.05 71.95 189.75 69.8 188.15 69.3 183.15 67.95 189 36.15 187.85 32.7 180 9.25 196.95 8.95 201.95 25.8 216.5 11.95 228.95 23.55 M162.25 14.95 Q169.65 16.35 177.35 18.25 L177.95 18.5 180.8 19.15 184.9 31.45 171.9 28.35 170.6 35.1 185.15 37.9 183.3 46.85 169.4 44.3 168.6 50.8 184.1 53.7 182.2 64.95 156.85 60.35 162.1 16.9 162.05 16.9 162.25 14.95 M122.9 10.2 L122.9 57.25 120.3 57.1 111.5 56.9 102.75 43.25 102.75 57.25 91.15 57.8 87.1 10.6 90.55 10.35 97.85 9.95 110.05 28.9 110.05 9.75 122.9 10.2 M89.6 57.65 L67.9 60.55 61.85 66.95 37.85 51.3 42.45 68.35 22.95 73.2 9.55 16.35 28.3 12.05 32.65 30.15 41.15 7.25 59.9 11.95 46.55 36.7 64.4 47.05 63.55 38.85 62.6 30.5 60.85 14 Q72.25 12.05 83.75 11 L85.25 22.6 74.05 23.8 74.8 29.4 86.05 28.6 87.1 37.9 75.8 39.3 76.8 44.5 87.85 43.55 89.6 57.65"/>
    <path stroke="none" fill="#121315" d="M18.6 81.55 L50 73.7 48.1 66.35 63 75.85 70.7 67.3 79.5 66.15 Q128.1 59.25 176.55 71.05 L176.05 73.55 182.05 75.1 182.2 75.25 188.6 76.7 189 76.85 202.4 80.35 194.15 87.9 194.15 87.95 194.05 87.95 182.05 84.75 181.75 84.75 176.05 83.3 176 83.3 170.4 81.75 170.8 79.55 Q129.7 69.8 88.8 74.35 L75.55 76.25 68.75 83.95 55.25 75.3 56.95 82 28.95 89.1 28.7 89.1 18.6 81.55 M210.65 49.85 L211.8 45.25 237.05 24.65 225.4 37.85 210.65 49.85"/>
    <path stroke="none" fill="url(#gradient1)" d="M422.5 38.8 L421.4 39.55 421.35 39.55 Q419.15 40.15 418.6 42.35 L418.6 42.4 Q418.45 43.05 417.9 43.45 L417.85 43.55 Q417.2 44.05 416.5 44 415.8 44 415.15 43.6 L415.1 43.45 Q414.5 43 414.3 42.35 L414.3 42.25 Q413.8 40.15 411.7 39.55 L411.65 39.55 Q410.95 39.4 410.5 38.8 410 38.2 410 37.5 410 36.7 410.55 36.15 410.95 35.6 411.65 35.45 413.8 34.85 414.3 32.65 L414.3 32.6 Q414.5 31.85 415.15 31.4 L416.5 31 417.75 31.4 Q418.4 31.85 418.6 32.6 419.15 34.85 421.35 35.45 L421.4 35.45 Q422 35.6 422.4 36.15 423 36.7 423 37.5 423 38.2 422.5 38.8 M410.8 49.45 L411.65 50 Q412 50.45 412 51 L411.65 52 410.8 52.55 410.75 52.55 Q407.45 53.35 406.55 56.8 L406.55 56.85 406 57.7 405 58 404 57.7 403.4 56.8 Q402.5 53.35 399.2 52.55 L398.35 52 Q398 51.55 398 51 398 50.45 398.35 50 398.7 49.6 399.2 49.45 L399.25 49.4 Q402.5 48.65 403.4 45.25 403.5 44.7 404 44.35 404.4 44 405 44 405.5 44 406 44.35 L406.55 45.2 406.55 45.25 Q407.45 48.65 410.75 49.4 L410.8 49.45 M424.6 47.45 Q425.1 47.75 425.25 48.4 426.95 55.15 433.55 56.7 L433.55 56.75 Q434.15 56.95 434.6 57.45 435 57.9 435 58.5 435 59.15 434.6 59.65 L434.5 59.7 Q434.15 60.15 433.55 60.3 426.95 61.9 425.25 68.65 L424.6 69.6 423.45 70 Q422.75 70 422.35 69.6 421.75 69.2 421.65 68.55 L421.65 68.65 Q420 61.9 413.35 60.3 412.7 60.15 412.4 59.7 L412.35 59.6 Q412 59.15 412 58.5 412 57.95 412.35 57.45 412.7 56.95 413.35 56.75 L413.35 56.7 Q420 55.15 421.65 48.4 421.8 47.75 422.35 47.45 422.75 47 423.45 47 424.05 47 424.6 47.45"/>
    <path stroke="none" fill="url(#gradient2)" d="M231 49.55 Q231 42.65 233.8 37.55 236.75 32.5 241.75 29.7 L245 28.35 Q248.95 27 253.5 27 260 27 264.9 29.65 266.4 30.45 267.75 31.6 L269.2 32.8 Q270.85 34.85 269.2 36.4 L260.75 42.8 Q259.2 43.95 256.6 41.1 255.2 40.1 253.25 40.1 250.3 40.1 248.6 42.45 246.8 44.9 246.8 49.55 246.8 54.1 248.6 56.55 250.3 58.95 253.25 58.95 255.9 58.95 257.45 57.2 258.95 55.1 261.1 56.45 L269.05 62.6 Q270.95 64.1 268.65 66.8 L267.75 67.45 264.9 69.35 Q260 72 253.5 72 248.95 72 245 70.7 243.3 70.1 241.75 69.3 236.75 66.55 233.8 61.45 231 56.4 231 49.55"/>
    <path stroke="none" fill="url(#gradient3)" d="M273.65 14.3 Q273.65 12.3 275.7 11.95 L287.3 11.95 Q289.8 12.05 289.65 14.3 L289.65 69.8 Q289.65 71.9 287.6 71.95 L275.7 71.95 Q273.45 71.8 273.65 69.8 L273.65 14.3"/>
    <path stroke="none" fill="url(#gradient4)" d="M323.7 65.35 Q321.75 68.3 318.25 70.1 314.85 72 310.45 72 304 72 299.85 68.5 L298.4 67.05 Q294 62 294 53.3 L294 30.3 Q294 27.85 296.3 28 L306.9 28 Q309.2 28 309.2 30.3 L309.2 51.45 Q309.2 55.15 311.15 57.3 313.1 59.35 316.4 59.35 319.7 59.35 321.75 57.3 323.7 55.15 323.7 51.45 L323.7 30.3 Q323.7 28.2 326.05 28 L336.7 28 Q339.2 27.95 339 30.3 L339 68.9 Q339.1 71.6 336.3 71.6 L326.45 71.6 Q323.55 71.6 323.7 68.9 L323.7 65.35"/>
    <path stroke="none" fill="url(#gradient5)" d="M375.4 50.35 Q375.4 45.9 373 43.55 370.75 41.15 367.35 41.15 364 41.15 361.65 43.55 359.35 46.05 359.35 50.35 359.35 54.55 361.65 57.1 364 59.45 367.35 59.45 370.75 59.45 373 57.05 375.4 54.5 375.4 50.35 M359.35 34.4 Q361.1 31.15 364.45 29.4 367.75 27.65 372.3 27.65 377.45 27.65 381.8 30.35 386.1 33.15 388.55 38.25 391 43.4 391 50.35 391 57.2 388.55 62.3 386.1 67.45 381.8 70.25 377.45 73 372.3 73 367.75 73 364.45 71.25 361.1 69.45 359.35 66.25 L359.35 70.15 Q359.35 72.15 357.05 72.45 L346.2 72.45 Q344.05 72.45 344 70.15 L344 16.3 Q343.95 14.25 346.2 14 L357.05 14 Q359.5 14.15 359.35 16.3 L359.35 34.4"/>
    <path stroke="none" fill="url(#gradient6)" d="M18.85 81.7 L18.8 81.7 18.6 81.55 18.25 80.05 18.4 80 49.05 72.2 47.3 65.65 Q47.15 65.3 47.3 65.1 47.35 64.75 47.55 64.55 L48.15 64.55 48.65 64.55 63 73.85 70.15 65.85 Q70.35 65.65 70.6 65.65 L79.5 64.25 Q128.25 57.6 176.8 69.35 L177.35 69.75 177.5 70.45 177.2 72 182.45 73.4 182.55 73.4 182.65 73.45 189 74.95 189.15 75.1 189.3 75.1 202.7 78.65 202.85 78.7 202.4 80.35 202.2 80.35 189 76.85 188.45 76.7 182.15 75.15 181.95 75.1 181.85 74.95 176 73.45 Q175.6 73.4 175.45 73.05 175.25 72.85 175.4 72.45 L175.6 70.9 Q127.75 59.35 79.8 66.05 L71.2 67.25 63.75 75.7 63.2 75.95 62.6 75.75 49.65 67.4 51 72.6 50.85 73.2 50.35 73.65 18.85 81.7"/>
  </g>
</svg>