<svg width="64" height="64" xmlns="http://www.w3.org/2000/svg" xmlns:xlink="http://www.w3.org/1999/xlink">
  <defs/>
  <g>
    <path stroke="none" fill="#FFFFFF" d="M41.25 13.25 Q40.4 14.2 39.35 14.5 L39.25 14.5 Q35.55 15.45 34.6 19.2 L34.6 19.25 Q34.3 20.35 33.35 21.1 L33.25 21.25 Q32.2 22.05 31 22 29.85 22 28.75 21.3 L28.65 21.1 Q27.65 20.3 27.35 19.2 L27.35 19.05 Q26.45 15.4 22.85 14.5 L22.8 14.5 Q21.6 14.2 20.85 13.25 20 12.2 20 10.95 20 9.65 20.9 8.7 21.6 7.75 22.8 7.5 26.45 6.5 27.35 2.8 L27.35 2.75 Q27.7 1.4 28.8 0.65 L28.75 0.65 Q29.85 0 31 0 32.15 0 33.1 0.65 34.2 1.4 34.6 2.7 35.55 6.5 39.25 7.5 L39.35 7.5 Q40.35 7.75 41.1 8.7 42 9.65 42 10.95 42 12.2 41.25 13.25 M45.95 24.7 Q46.75 25.3 47.05 26.4 L47.05 26.45 Q50.05 38.1 61.55 40.9 L61.55 40.95 Q62.55 41.25 63.3 42.1 64 42.9 64 44 64 45.15 63.3 46 L63.2 46.1 Q62.55 46.8 61.55 47.1 50.05 49.9 47.05 61.65 L47.05 61.7 Q46.75 62.65 45.95 63.3 45 64.05 44 64 42.8 64 42 63.3 41 62.6 40.8 61.55 L40.8 61.65 Q37.9 49.9 26.35 47.1 25.3 46.8 24.65 46.1 L24.55 45.85 Q24 45.1 24 44 24 43 24.55 42.15 L24.6 42.1 Q25.3 41.25 26.35 40.95 L26.35 40.9 Q37.9 38.1 40.8 26.45 41.05 25.3 42 24.7 42.8 24 44 24 45 23.95 45.95 24.7 M21.95 27.35 Q22.85 27.6 23.4 28.35 24 29.05 24 30.05 24 30.95 23.4 31.7 L23.4 31.75 Q22.85 32.4 21.95 32.65 L21.9 32.65 Q16.2 34.05 14.7 39.95 L14.7 40 13.75 41.45 Q12.9 42 12.05 42 11.05 42 10.3 41.45 9.45 40.75 9.3 39.9 L9.3 39.95 Q7.8 34.05 2.1 32.65 1.2 32.4 0.65 31.75 L0.6 31.7 Q0 30.95 0 30.05 0 29.05 0.6 28.35 1.2 27.6 2.1 27.35 L2.15 27.3 Q7.8 25.9 9.3 20.1 9.5 19.15 10.3 18.6 11.05 18 12.05 18 12.9 17.95 13.75 18.6 14.45 19.15 14.7 20.05 L14.7 20.1 Q16.2 25.9 21.9 27.3 L21.95 27.35"/>
  </g>
</svg>