<svg xmlns="http://www.w3.org/2000/svg" xmlns:xlink="http://www.w3.org/1999/xlink" width="20" height="20">
  <defs/>
  <g>
    <path stroke="none" fill="#262633" d="M2.6 13.95 L4.7 13.55 Q-1.35 7.7 2.55 2.8 2.55 2.7 2.7 2.7 L3.15 2.7 3.55 2.95 Q5.65 5.65 8.9 6.1 8.9 4.45 10 3.25 11.2 2 12.85 2 L14.1 2.2 Q14.95 2.6 15.7 3.55 L16.5 3.4 17.65 3.05 18.25 2.95 18.75 3.25 18.95 3.8 18.9 4.4 18.7 4.8 16.85 8.35 16.65 9.35 16.1 10.8 14.35 13.65 Q11.45 17 6.85 17 3.85 17 1.45 15.4 L1.15 15 1.15 14.45 1.45 14.05 1.95 13.95 2.6 13.95"/>
  </g>
</svg>